<svg width="18" height="24" viewBox="0 0 18 24" fill="none" xmlns="http://www.w3.org/2000/svg">
<path d="M5.175 17.0182L0 12L5.175 6.98182L6.35625 8.18182L2.41875 12L6.35625 15.8182L5.175 17.0182ZM1.125 17.8364H2.8125V19.9091H15.1875V17.8364H16.875V22.3636C16.875 22.8 16.7062 23.1818 16.3687 23.5091C16.0312 23.8364 15.6375 24 15.1875 24H2.8125C2.3625 24 1.96875 23.8364 1.63125 23.5091C1.29375 23.1818 1.125 22.8 1.125 22.3636V17.8364ZM2.8125 5.83636H1.125V1.63636C1.125 1.2 1.29375 0.818182 1.63125 0.490909C1.96875 0.163636 2.3625 0 2.8125 0H15.1875C15.6375 0 16.0312 0.163636 16.3687 0.490909C16.7062 0.818182 16.875 1.2 16.875 1.63636V5.83636H15.1875V4.09091H2.8125V5.83636ZM2.8125 21.5455V22.3636H15.1875V21.5455H2.8125ZM2.8125 2.45455H15.1875V1.63636H2.8125V2.45455ZM12.825 17.0182L11.6437 15.8182L15.5812 12L11.6437 8.18182L12.825 6.98182L18 12L12.825 17.0182Z" fill="#FF0000"/>
</svg>
