<svg width="25" height="19" viewBox="0 0 25 19" fill="none" xmlns="http://www.w3.org/2000/svg">
<g clip-path="url(#clip0_22_6)">
<path d="M14.7727 6.70937V5.28437C15.3977 5.00729 16.0369 4.79948 16.6903 4.66094C17.3438 4.5224 18.0303 4.45312 18.75 4.45312C19.2424 4.45312 19.7254 4.49271 20.1989 4.57188C20.6723 4.65104 21.1364 4.75 21.5909 4.86875V6.175C21.1364 5.99687 20.6771 5.86328 20.2131 5.77422C19.7491 5.68516 19.2614 5.64062 18.75 5.64062C18.0303 5.64062 17.339 5.73464 16.6761 5.92266C16.0133 6.11068 15.3788 6.37292 14.7727 6.70937ZM14.7727 13.2406V11.7859C15.3977 11.5188 16.0369 11.3184 16.6903 11.1848C17.3438 11.0512 18.0303 10.9844 18.75 10.9844C19.2424 10.9844 19.7254 11.024 20.1989 11.1031C20.6723 11.1823 21.1364 11.2812 21.5909 11.4V12.7063C21.1364 12.5281 20.6771 12.3945 20.2131 12.3055C19.7491 12.2164 19.2614 12.1719 18.75 12.1719C18.0303 12.1719 17.339 12.2609 16.6761 12.4391C16.0133 12.6172 15.3788 12.8844 14.7727 13.2406ZM14.7727 9.975V8.55C15.3977 8.27292 16.0369 8.0651 16.6903 7.92656C17.3438 7.78802 18.0303 7.71875 18.75 7.71875C19.2424 7.71875 19.7254 7.75833 20.1989 7.8375C20.6723 7.91667 21.1364 8.01562 21.5909 8.13437V9.44063C21.1364 9.2625 20.6771 9.12891 20.2131 9.03984C19.7491 8.95078 19.2614 8.90625 18.75 8.90625C18.0303 8.90625 17.339 9.00026 16.6761 9.18828C16.0133 9.3763 15.3788 9.63854 14.7727 9.975ZM5.90909 14.8438C6.9236 14.8438 7.91113 14.9674 8.87168 15.2148C9.83223 15.4622 10.7765 15.8333 11.7045 16.3281V3.65156C10.8523 3.05781 9.92785 2.59766 8.93128 2.27109C7.93473 1.94453 6.92733 1.78125 5.90909 1.78125C5.18939 1.78125 4.4839 1.87526 3.79261 2.06328C3.10133 2.2513 2.4053 2.48385 1.70455 2.76094V15.6453C2.29167 15.3682 2.95928 15.1654 3.70739 15.0367C4.45549 14.9081 5.18939 14.8438 5.90909 14.8438ZM13.4091 16.3281C14.3561 15.8333 15.2841 15.4622 16.1932 15.2148C17.1023 14.9674 18.0682 14.8438 19.0909 14.8438C19.8106 14.8438 20.554 14.9031 21.321 15.0219C22.0881 15.1406 22.7462 15.299 23.2955 15.4969V2.76094C22.6515 2.42448 21.9714 2.17708 21.2551 2.01875C20.5387 1.86042 19.8173 1.78125 19.0909 1.78125C18.0682 1.78125 17.0786 1.94453 16.1222 2.27109C15.1657 2.59766 14.2614 3.05781 13.4091 3.65156V16.3281ZM12.5568 19C11.5909 18.2479 10.5398 17.669 9.40341 17.2633C8.26705 16.8576 7.10227 16.6547 5.90909 16.6547C5.2171 16.6547 4.53748 16.7437 3.87023 16.9219C3.20295 17.1 2.53788 17.3177 1.875 17.575C1.4375 17.7927 1.01562 17.763 0.609375 17.4859C0.203125 17.2089 0 16.813 0 16.2984V2.55312C0 2.25625 0.0662879 1.98411 0.198864 1.73672C0.331439 1.48932 0.530303 1.29635 0.795455 1.15781C1.59091 0.761979 2.41851 0.470052 3.27827 0.282031C4.138 0.0940104 5.01494 0 5.90909 0C7.10227 0 8.26231 0.168229 9.3892 0.504687C10.5161 0.841146 11.572 1.35573 12.5568 2.04844C13.5227 1.35573 14.5597 0.841146 15.6676 0.504687C16.7756 0.168229 17.9167 0 19.0909 0C19.9786 0 20.8491 0.0940104 21.7027 0.282031C22.5562 0.470052 23.3807 0.761979 24.1761 1.15781C24.4413 1.29635 24.6449 1.48932 24.7869 1.73672C24.929 1.98411 25 2.25625 25 2.55312V16.2984C25 16.8505 24.7869 17.2706 24.3608 17.5586C23.9347 17.8466 23.5133 17.8521 23.0966 17.575C22.4527 17.2979 21.797 17.0753 21.1298 16.907C20.4625 16.7388 19.7829 16.6547 19.0909 16.6547C17.8977 16.6547 16.7519 16.8625 15.6534 17.2781C14.5549 17.6938 13.5227 18.2677 12.5568 19Z" fill="#FF0000"/>
</g>
<defs>
<clipPath id="clip0_22_6">
<rect width="25" height="19" fill="white"/>
</clipPath>
</defs>
</svg>
