<svg width="21" height="20" viewBox="0 0 21 20" fill="none" xmlns="http://www.w3.org/2000/svg">
<g clip-path="url(#clip0_22_4)">
<path d="M10.8258 20L15.3303 8H17.371L22 20H19.8348L18.8145 16.85H14.0362L12.8665 20H10.8258ZM14.5837 15.1H18.1176L16.3756 10.25H16.3258L14.5837 15.1ZM2.98643 17L1.61765 15.625L6.69457 10.525C6.0641 9.79167 5.50415 9.05417 5.01471 8.3125C4.52526 7.57083 4.09804 6.8 3.73303 6H5.89819C6.18024 6.55 6.49133 7.07083 6.83145 7.5625C7.17157 8.05417 7.55732 8.55833 7.98869 9.075C8.73529 8.29167 9.35747 7.47917 9.8552 6.6375C10.3529 5.79583 10.776 4.91667 11.1244 4H0V2H6.96833V0H8.95928V2H15.9276V4H13.1154C12.7504 5.15 12.2651 6.27917 11.6595 7.3875C11.0539 8.49583 10.3115 9.55 9.43213 10.55L11.871 13.025L11.1244 15.05L7.9638 12L2.98643 17Z" fill="#FF0000"/>
</g>
<defs>
<clipPath id="clip0_22_4">
<rect width="21" height="20" fill="white"/>
</clipPath>
</defs>
</svg>
