<svg width="195" height="40" viewBox="0 0 195 40" fill="none" xmlns="http://www.w3.org/2000/svg">
<path d="M15.704 4.92002C17.784 4.92002 19.624 5.22402 21.224 5.83202C22.856 6.44002 24.392 7.35202 25.832 8.56802L22.088 13.032C21.096 12.264 20.12 11.688 19.16 11.304C18.2 10.92 17.176 10.728 16.088 10.728C13.848 10.728 12.072 11.672 10.76 13.56C9.47999 15.448 8.83998 18.36 8.83998 22.296C8.83998 26.168 9.47999 29.048 10.76 30.936C12.072 32.792 13.88 33.72 16.184 33.72C17.4 33.72 18.504 33.496 19.496 33.048C20.488 32.568 21.56 31.896 22.712 31.032L26.216 35.544C24.968 36.792 23.448 37.816 21.656 38.616C19.896 39.416 17.944 39.816 15.8 39.816C12.728 39.816 10.056 39.144 7.78399 37.8C5.51198 36.456 3.73598 34.472 2.45598 31.848C1.20798 29.192 0.583984 26.008 0.583984 22.296C0.583984 18.68 1.22398 15.56 2.50398 12.936C3.81598 10.312 5.60798 8.32802 7.87998 6.98402C10.184 5.60802 12.792 4.92002 15.704 4.92002Z" fill="black"/>
<path d="M42.8469 12.792C43.7749 12.792 44.6229 12.904 45.3909 13.128L44.1909 20.472C43.2309 20.248 42.4629 20.136 41.8869 20.136C40.3829 20.136 39.2309 20.664 38.4309 21.72C37.6629 22.744 37.0549 24.296 36.6069 26.376V39H29.0229V13.512H35.6469L36.2709 18.456C36.8469 16.696 37.7109 15.32 38.8629 14.328C40.0469 13.304 41.3749 12.792 42.8469 12.792Z" fill="black"/>
<path d="M55.8725 13.512V39H48.2885V13.512H55.8725ZM52.0325 0.0720215C53.3445 0.0720215 54.4165 0.488022 55.2485 1.32002C56.1125 2.12002 56.5445 3.14402 56.5445 4.39202C56.5445 5.64002 56.1125 6.68002 55.2485 7.51202C54.4165 8.31202 53.3445 8.71202 52.0325 8.71202C50.7205 8.71202 49.6485 8.31202 48.8165 7.51202C47.9845 6.68002 47.5685 5.64002 47.5685 4.39202C47.5685 3.14402 47.9845 2.12002 48.8165 1.32002C49.6485 0.488022 50.7205 0.0720215 52.0325 0.0720215Z" fill="black"/>
<path d="M70.8114 12.696C72.6354 12.696 74.3474 12.968 75.9474 13.512C77.5474 14.056 78.9554 14.824 80.1714 15.816L77.3874 20.088C75.3074 18.776 73.2114 18.12 71.0994 18.12C70.1074 18.12 69.3394 18.296 68.7954 18.648C68.2834 18.968 68.0274 19.432 68.0274 20.04C68.0274 20.52 68.1394 20.92 68.3634 21.24C68.6194 21.528 69.1154 21.832 69.8514 22.152C70.5874 22.472 71.7234 22.856 73.2594 23.304C75.9154 24.072 77.8834 25.08 79.1634 26.328C80.4754 27.544 81.1314 29.24 81.1314 31.416C81.1314 33.144 80.6354 34.648 79.6434 35.928C78.6514 37.176 77.2914 38.136 75.5634 38.808C73.8354 39.48 71.9154 39.816 69.8034 39.816C67.6594 39.816 65.6594 39.48 63.8034 38.808C61.9794 38.136 60.4274 37.208 59.1474 36.024L62.8434 31.896C64.9874 33.56 67.2434 34.392 69.6114 34.392C70.7634 34.392 71.6594 34.184 72.2994 33.768C72.9714 33.352 73.3074 32.76 73.3074 31.992C73.3074 31.384 73.1794 30.904 72.9234 30.552C72.6674 30.2 72.1714 29.88 71.4354 29.592C70.6994 29.272 69.5314 28.888 67.9314 28.44C65.4034 27.704 63.5154 26.68 62.2674 25.368C61.0194 24.056 60.3954 22.424 60.3954 20.472C60.3954 19 60.8114 17.688 61.6434 16.536C62.5074 15.352 63.7234 14.424 65.2914 13.752C66.8914 13.048 68.7314 12.696 70.8114 12.696Z" fill="black"/>
<path d="M101.022 37.8C100.094 38.44 99.0065 38.936 97.7585 39.288C96.5425 39.64 95.3265 39.816 94.1105 39.816C88.5425 39.784 85.7585 36.712 85.7585 30.6V18.792H82.1585V13.512H85.7585V7.99202L93.3425 7.12802V13.512H99.1985L98.3825 18.792H93.3425V30.504C93.3425 31.688 93.5345 32.536 93.9185 33.048C94.3025 33.56 94.9105 33.816 95.7425 33.816C96.6065 33.816 97.5185 33.544 98.4785 33L101.022 37.8Z" fill="black"/>
<path d="M111.138 13.512V39H103.554V13.512H111.138ZM107.298 0.0720215C108.61 0.0720215 109.682 0.488022 110.514 1.32002C111.378 2.12002 111.81 3.14402 111.81 4.39202C111.81 5.64002 111.378 6.68002 110.514 7.51202C109.682 8.31202 108.61 8.71202 107.298 8.71202C105.986 8.71202 104.914 8.31202 104.082 7.51202C103.25 6.68002 102.834 5.64002 102.834 4.39202C102.834 3.14402 103.25 2.12002 104.082 1.32002C104.914 0.488022 105.986 0.0720215 107.298 0.0720215Z" fill="black"/>
<path d="M137.357 31.608C137.357 32.568 137.485 33.272 137.741 33.72C138.029 34.168 138.477 34.504 139.085 34.728L137.501 39.672C135.933 39.544 134.653 39.208 133.661 38.664C132.669 38.088 131.901 37.192 131.357 35.976C129.693 38.536 127.133 39.816 123.677 39.816C121.149 39.816 119.133 39.08 117.629 37.608C116.125 36.136 115.373 34.216 115.373 31.848C115.373 29.064 116.397 26.936 118.445 25.464C120.493 23.992 123.453 23.256 127.325 23.256H129.917V22.152C129.917 20.648 129.597 19.624 128.957 19.08C128.317 18.504 127.197 18.216 125.597 18.216C124.765 18.216 123.757 18.344 122.573 18.6C121.389 18.824 120.173 19.144 118.925 19.56L117.197 14.568C118.797 13.96 120.429 13.496 122.093 13.176C123.789 12.856 125.357 12.696 126.797 12.696C130.445 12.696 133.117 13.448 134.813 14.952C136.509 16.456 137.357 18.712 137.357 21.72V31.608ZM125.885 34.392C127.613 34.392 128.957 33.576 129.917 31.944V27.432H128.045C126.317 27.432 125.021 27.736 124.157 28.344C123.325 28.952 122.909 29.896 122.909 31.176C122.909 32.2 123.165 33 123.677 33.576C124.221 34.12 124.957 34.392 125.885 34.392Z" fill="black"/>
<path d="M158.326 12.696C160.534 12.696 162.262 13.368 163.51 14.712C164.758 16.056 165.382 17.944 165.382 20.376V39H157.798V21.672C157.798 20.392 157.59 19.512 157.174 19.032C156.79 18.52 156.198 18.264 155.398 18.264C153.862 18.264 152.39 19.368 150.982 21.576V39H143.398V13.512H150.022L150.55 16.536C151.638 15.256 152.806 14.296 154.054 13.656C155.334 13.016 156.758 12.696 158.326 12.696Z" fill="black"/>
<path d="M182.141 12.696C186.045 12.696 189.101 13.896 191.309 16.296C193.517 18.664 194.621 21.992 194.621 26.28C194.621 29 194.109 31.384 193.085 33.432C192.093 35.448 190.653 37.016 188.765 38.136C186.909 39.256 184.701 39.816 182.141 39.816C178.269 39.816 175.213 38.632 172.973 36.264C170.765 33.864 169.661 30.52 169.661 26.232C169.661 23.512 170.157 21.144 171.149 19.128C172.173 17.08 173.613 15.496 175.469 14.376C177.357 13.256 179.581 12.696 182.141 12.696ZM182.141 18.264C180.605 18.264 179.453 18.92 178.685 20.232C177.917 21.512 177.533 23.512 177.533 26.232C177.533 29.016 177.901 31.048 178.637 32.328C179.405 33.608 180.573 34.248 182.141 34.248C183.677 34.248 184.829 33.608 185.597 32.328C186.365 31.016 186.749 29 186.749 26.28C186.749 23.496 186.365 21.464 185.597 20.184C184.861 18.904 183.709 18.264 182.141 18.264Z" fill="black"/>
</svg>
