<svg width="28" height="32" viewBox="0 0 28 32" fill="none" xmlns="http://www.w3.org/2000/svg">
<path d="M3.5 28V9.40001H10.7042V6.33334L14 2.66667L17.2958 6.33334V14.9333H24.5V28H3.5ZM5.25 26H8.34167V22.4667H5.25V26ZM5.25 20.4667H8.34167V16.9333H5.25V20.4667ZM5.25 14.9333H8.34167V11.4H5.25V14.9333ZM12.4542 26H15.5458V22.4667H12.4542V26ZM12.4542 20.4667H15.5458V16.9333H12.4542V20.4667ZM12.4542 14.9333H15.5458V11.4H12.4542V14.9333ZM12.4542 9.40001H15.5458V5.86667H12.4542V9.40001ZM19.6583 26H22.75V22.4667H19.6583V26ZM19.6583 20.4667H22.75V16.9333H19.6583V20.4667Z" fill="#FF0000"/>
</svg>
